<svg id="Layer_1" data-name="Layer 1" xmlns="http://www.w3.org/2000/svg" viewBox="0 0 200 200"><defs><style>.cls-1{fill:#46853e;}.cls-2{fill:#f9f9fa;}</style></defs><circle class="cls-1" cx="100" cy="100" r="100"/><rect class="cls-2" x="41.26" y="38.04" width="58.74" height="109.09" rx="29.37"/><rect class="cls-2" x="100" y="21.26" width="58.74" height="125.87" rx="29.37"/><path class="cls-1" d="M171.18,248.39h-1.1A30.11,30.11,0,0,1,140,218.32V166.86a30.12,30.12,0,0,1,30.08-30.08h1.1a30.12,30.12,0,0,1,30.08,30.08v51.46A30.11,30.11,0,0,1,171.18,248.39Zm-1.1-109.09a27.59,27.59,0,0,0-27.56,27.56v51.46a27.58,27.58,0,0,0,27.56,27.55h1.1a27.58,27.58,0,0,0,27.56-27.55V166.86a27.59,27.59,0,0,0-27.56-27.56Z" transform="translate(-100 -100)"/><path class="cls-1" d="M229.92,248.39h-1.1a30.11,30.11,0,0,1-30.08-30.07V150.08A30.11,30.11,0,0,1,228.82,120h1.1A30.11,30.11,0,0,1,260,150.08v68.24A30.11,30.11,0,0,1,229.92,248.39Zm-1.1-125.87a27.59,27.59,0,0,0-27.56,27.56v68.24a27.58,27.58,0,0,0,27.56,27.55h1.1a27.58,27.58,0,0,0,27.56-27.55V150.08a27.59,27.59,0,0,0-27.56-27.56Z" transform="translate(-100 -100)"/><rect class="cls-1" x="58.04" y="80" width="24.07" height="50.35" rx="12.03"/><rect class="cls-1" x="117.89" y="71.61" width="24.07" height="58.74" rx="12.03"/><path class="cls-2" d="M259.77,240.63a30.1,30.1,0,0,1-29.85,26.43h-1.1A30.13,30.13,0,0,1,200,245.61a30.13,30.13,0,0,1-28.82,21.45h-1.1a30.1,30.1,0,0,1-29.85-26.43h2.52a27.61,27.61,0,0,0,27.33,23.92h1.1a27.61,27.61,0,0,0,27.33-23.92h3c.07.49.15,1,.24,1.46a27.62,27.62,0,0,0,27.09,22.46h1.1a27.61,27.61,0,0,0,27.33-23.92Z" transform="translate(-100 -100)"/></svg>