<svg id="Layer_1" data-name="Layer 1" xmlns="http://www.w3.org/2000/svg" viewBox="0 0 200 200">
<defs><style>.cls-1{fill:#46853e;}.cls-2{fill:#f9f9fa;}</style></defs>
<circle class="cls-1" cx="100" cy="100" r="100"/>
<rect class="cls-2" x="42.5" y="44.58" width="55" height="100.83" rx="26.5"/>
<rect class="cls-2" x="102.5" y="25.42" width="55" height="119.17" rx="27.5"/>
<path class="cls-2" d="M159.77,140.63a30.1,30.1,0,0,1-29.85,26.43h-1.1A30.13,30.13,0,0,1,100,145.61a30.13,30.13,0,0,1-28.82,21.45h-1.1a30.1,30.1,0,0,1-29.85-26.43h2.52a27.61,27.61,0,0,0,27.33,23.92h1.1a27.61,27.61,0,0,0,27.33-23.92h3c.07.49.15,1,.24,1.46a27.62,27.62,0,0,0,27.09,22.46h1.1a27.61,27.61,0,0,0,27.33-23.92Z" transform="translate(0)"/>
<rect class="cls-1" x="60" y="80" width="20" height="50" rx="10"/>
<rect class="cls-1" x="120" y="70" width="20" height="60" rx="10"/>
</svg>