<svg id="Layer_1" data-name="Layer 1" xmlns="http://www.w3.org/2000/svg" viewBox="0 0 190 249.3"><defs><style>.cls-1{fill:#46853e;}.cls-2{fill:#f9f9fa;}.cls-3{fill:none;}.cls-4{fill:#e3b86b;}</style></defs><path class="cls-1" d="M165,160c0,.5,0,1,0,1.5,0,1.06-.08,2.12-.16,3.17s-.21,2.33-.37,3.47c0,.18,0,.35-.07.53-.26,1.78-.59,3.54-1,5.26a59,59,0,0,1-2.07,6.86q-.87,2.37-1.93,4.63A60,60,0,0,1,134,212.49l-.8.44a1.4,1.4,0,0,1-.34.18c-1.09.58-2.2,1.13-3.33,1.63-.7.32-1.4.62-2.12.9s-1.73.68-2.61,1-1.88.64-2.84.92c-.64.19-1.28.38-1.93.55s-1.38.34-2.07.49l-1.5.31c-1,.19-2,.36-3,.5a59.47,59.47,0,0,1-8.5.6,60.47,60.47,0,0,1-10.13-.85q-2.5-.43-4.93-1.06l-.53-.14h0c-1.44-.38-2.85-.83-4.24-1.32l-.71-.25c-.94-.34-1.87-.7-2.79-1.09s-2.06-.91-3.07-1.41L78,213.6c-1-.51-2-1-3-1.63-.71-.41-1.42-.84-2.11-1.28a60.21,60.21,0,0,1-18.72-18.77q-1.45-2.31-2.69-4.75a59.28,59.28,0,0,1-5.77-17.8c0-.33-.1-.66-.14-1-.16-1.07-.28-2.14-.37-3.23s-.15-2-.18-3c0-.17,0-.34,0-.51,0-.56,0-1.11,0-1.67s0-1.13,0-1.69a60,60,0,0,1,120,.19C165,159,165,159.5,165,160Z"/><rect class="cls-2" x="70.5" y="126.75" width="33" height="60.5" rx="15.9"/><rect class="cls-2" x="106.5" y="115.25" width="33" height="71.5" rx="16.5"/><path class="cls-2" d="M140.86,184.38A18.06,18.06,0,0,1,123,200.24h-.66A18.08,18.08,0,0,1,105,187.37a18.08,18.08,0,0,1-17.29,12.87h-.66a18.06,18.06,0,0,1-17.91-15.86h1.51a16.57,16.57,0,0,0,16.4,14.35h.66a16.56,16.56,0,0,0,16.39-14.35h1.8c0,.29.09.58.14.87a16.57,16.57,0,0,0,16.25,13.48H123a16.57,16.57,0,0,0,16.4-14.35Z"/><rect class="cls-1" x="76" y="146" width="12" height="30" rx="6"/><path class="cls-2" d="M190,40c0,21.78-41.36,39.5-92.82,40H95a212.08,212.08,0,0,1-35.77-2.94C24.49,71.12,0,56.76,0,40,0,17.91,42.53,0,95,0S190,17.91,190,40Z"/><path class="cls-3" d="M11.29,110H10"/><path class="cls-2" d="M97.18,80c-9.86,17.09-44.47,29.75-85.89,30,24.05-.49,43.85-14.52,47.94-32.93A212.08,212.08,0,0,0,95,80Z"/><path class="cls-3" d="M11.29,110H10"/><rect class="cls-1" x="112" y="140" width="12" height="36" rx="6"/><path class="cls-1" d="M29.3,109.64a9.63,9.63,0,0,1-2,5.91A9.86,9.86,0,0,1,24.48,118a7.91,7.91,0,0,1-1.17.57,9.52,9.52,0,0,1-8.49-.59A9.6,9.6,0,0,1,10,110c0-.12,0-.24,0-.36A9.68,9.68,0,0,1,19.66,100a8.73,8.73,0,0,1,2.4.3,10.49,10.49,0,0,1,1.37.46,10.32,10.32,0,0,1,1.05.53A9.64,9.64,0,0,1,27,103.37a5.58,5.58,0,0,1,.37.48A9.67,9.67,0,0,1,28.94,107a9.25,9.25,0,0,1,.34,2C29.29,109.26,29.3,109.45,29.3,109.64Z"/><path class="cls-1" d="M169.31,70.34a9.66,9.66,0,0,1-8.42,9.58,10.19,10.19,0,0,1-1.24.08,9.65,9.65,0,0,1-9.4-7.47,7.88,7.88,0,0,1-.16-.87,9.68,9.68,0,0,1,.65-5,9.66,9.66,0,0,1,6-5.51,10,10,0,0,1,2.9-.44,9.86,9.86,0,0,1,2.89.44,9.7,9.7,0,0,1,6.77,9.22Z"/><path class="cls-1" d="M139.32,239.64a9.66,9.66,0,1,1-16-7.31,9,9,0,0,1,1.16-.87,9.59,9.59,0,0,1,2.25-1,8.15,8.15,0,0,1,1.11-.26,8.23,8.23,0,0,1,1.42-.15h.36a10,10,0,0,1,2.9.42A9.68,9.68,0,0,1,139.32,239.64Z"/><path class="cls-1" d="M90,239.64a9.65,9.65,0,1,1-16.56-6.73A9.76,9.76,0,0,1,78,230.3a10.07,10.07,0,0,1,2.41-.3h.33a9.48,9.48,0,0,1,4.79,1.44l.53.36A9.69,9.69,0,0,1,90,239.64Z"/><path class="cls-4" d="M160.89,79.92l-7.45,44.67a59.4,59.4,0,0,0-4.22-5.14l6.7-40.2a9.66,9.66,0,0,0,3.73.75A10.19,10.19,0,0,0,160.89,79.92Z"/><path class="cls-4" d="M47.57,142.59A59.47,59.47,0,0,0,46,148.88L23.31,118.57a7.91,7.91,0,0,0,1.17-.57,9.86,9.86,0,0,0,2.81-2.45Z"/><path class="cls-4" d="M89.94,218.09l-4.46,13.37A9.48,9.48,0,0,0,80.69,230l4.47-13.39c1.39.49,2.8.94,4.24,1.32h0Z"/><path class="cls-4" d="M129.3,230a8.23,8.23,0,0,0-1.42.15,8.15,8.15,0,0,0-1.11.26,9.59,9.59,0,0,0-2.25,1l-4.45-13.36c.65-.17,1.29-.36,1.93-.55,1-.28,1.9-.59,2.84-.92Z"/></svg>