<svg id="Layer_1" data-name="Layer 1" xmlns="http://www.w3.org/2000/svg" viewBox="0 0 180 145"><defs><style>.cls-1{fill:#46853e;}.cls-2{fill:#f9f9fa;}.cls-3{fill:#866c3e;}.cls-4{fill:#853e6d;}.cls-5{fill:#3e5d85;}</style></defs><path class="cls-1" d="M155,60c0,.5,0,1,0,1.5a60,60,0,0,1-48.48,57.4c-1,.19-2,.36-3,.5a60.24,60.24,0,0,1-29-3c-.94-.34-1.87-.7-2.79-1.09A60,60,0,0,1,35,61.67c0-.56,0-1.11,0-1.67s0-1.13,0-1.69a60,60,0,0,1,120,.19C155,59,155,59.5,155,60Z"/><rect class="cls-2" x="60.5" y="26.75" width="33" height="60.5" rx="15.9"/><rect class="cls-2" x="96.5" y="15.25" width="33" height="71.5" rx="16.5"/><path class="cls-2" d="M130.86,84.38A18.06,18.06,0,0,1,113,100.24h-.66A18.08,18.08,0,0,1,95,87.37a18.08,18.08,0,0,1-17.29,12.87h-.66A18.06,18.06,0,0,1,59.14,84.38h1.51a16.57,16.57,0,0,0,16.4,14.35h.66A16.56,16.56,0,0,0,94.1,84.38h1.8c0,.29.09.58.14.87a16.57,16.57,0,0,0,16.25,13.48H113a16.57,16.57,0,0,0,16.4-14.35Z"/><rect class="cls-1" x="68" y="53" width="12" height="30" rx="6"/><rect class="cls-1" x="104" y="47" width="12" height="36" rx="6"/><path class="cls-3" d="M35,60c0,.56,0,1.11,0,1.67l-18.9,9.45L8.8,85.75a5,5,0,0,0-2.55-1.59l5.4-10.81,2.23-4.47,4.47-2.23L35,58.31C35,58.87,35,59.44,35,60Z"/><path class="cls-3" d="M176.5,58.5v6.72a5.22,5.22,0,0,0-3,0V61.5H155c0-.5,0-1,0-1.5s0-1,0-1.5Z"/><path class="cls-3" d="M74.45,116.38,67.93,136a4.91,4.91,0,0,0-2.84-.94l6.57-19.72C72.58,115.68,73.51,116,74.45,116.38Z"/><path class="cls-3" d="M106.5,118.9v16.32a5.22,5.22,0,0,0-3,0V119.4C104.51,119.26,105.51,119.09,106.5,118.9Z"/><rect class="cls-4" x="2.5" y="40" width="5" height="5"/><polygon class="cls-3" points="7.5 115 5 120 4.99 120 2.5 115.03 2.5 115 7.5 115"/><rect class="cls-5" x="2.5" y="45" width="5" height="70"/><path class="cls-1" d="M10,89a5,5,0,1,1-5-5,4.71,4.71,0,0,1,1.25.16A5,5,0,0,1,10,89Z"/><path class="cls-1" d="M180,70a5,5,0,1,1-6.5-4.78,5.22,5.22,0,0,1,3,0A5,5,0,0,1,180,70Z"/><path class="cls-1" d="M110,140a5,5,0,1,1-6.5-4.78,5.22,5.22,0,0,1,3,0A5,5,0,0,1,110,140Z"/><path class="cls-1" d="M70,140a5,5,0,1,1-5-5h.09a4.91,4.91,0,0,1,2.84.94A5,5,0,0,1,70,140Z"/></svg>