<svg id="Layer_1" data-name="Layer 1" xmlns="http://www.w3.org/2000/svg" viewBox="0 0 221.97 180"><defs><style>.cls-1{fill:#46853e;}.cls-2{fill:#f9f9fa;}.cls-3{fill:#e3b86b;}.cls-4{fill:#d66dab;}.cls-5{fill:#6e9dd3;}</style></defs><path class="cls-1" d="M185,60c0,.5,0,1,0,1.5,0,1.06-.08,2.12-.16,3.17s-.21,2.33-.37,3.47c0,.18,0,.35-.07.53-.26,1.78-.59,3.54-1,5.26a59.92,59.92,0,0,1-30.13,39,1.4,1.4,0,0,1-.34.18,53.88,53.88,0,0,1-5.45,2.53,56.66,56.66,0,0,1-5.45,1.91c-1.31.4-2.65.74-4,1l-1.5.31c-1,.19-2,.36-3,.5a60.24,60.24,0,0,1-29-3c-.94-.34-1.87-.7-2.79-1.09s-2.06-.91-3.07-1.41c-.19-.09-.38-.18-.56-.28-1-.51-2-1-3-1.63-.71-.41-1.42-.84-2.11-1.28A60,60,0,0,1,65.73,69.37c0-.33-.1-.66-.14-1-.16-1.07-.28-2.14-.37-3.23s-.15-2-.18-3c0-.17,0-.34,0-.51,0-.56,0-1.11,0-1.67s0-1.13,0-1.69a60,60,0,0,1,120,.19C185,59,185,59.5,185,60Z"/><rect class="cls-2" x="90.5" y="26.75" width="33" height="60.5" rx="15.9"/><rect class="cls-2" x="126.5" y="15.25" width="33" height="71.5" rx="16.5"/><path class="cls-2" d="M160.86,84.38A18.06,18.06,0,0,1,143,100.24h-.66A18.08,18.08,0,0,1,125,87.37a18.08,18.08,0,0,1-17.29,12.87h-.66A18.06,18.06,0,0,1,89.14,84.38h1.51a16.57,16.57,0,0,0,16.4,14.35h.66A16.56,16.56,0,0,0,124.1,84.38h1.8c0,.29.09.58.14.87a16.57,16.57,0,0,0,16.25,13.48H143a16.57,16.57,0,0,0,16.4-14.35Z"/><rect class="cls-1" x="98" y="53" width="12" height="30" rx="6"/><rect class="cls-1" x="134" y="47" width="12" height="36" rx="6"/><path class="cls-3" d="M65.59,68.38,31.12,85.62,17,113.87a9.64,9.64,0,0,0-2.51-2.08V106l8-16L26.8,81.3,35.43,77,65,62.18q0,1.5.18,3C65.31,66.24,65.43,67.31,65.59,68.38Z"/><path class="cls-3" d="M14.48,106v5.83a9.34,9.34,0,0,0-2.42-1Z"/><path class="cls-3" d="M215.2,68.14v13a9.86,9.86,0,0,0-2.89-.44,10,10,0,0,0-2.9.44V73.93h-26c.42-1.72.75-3.48,1-5.26,0-.18.05-.35.07-.53Z"/><path class="cls-3" d="M98,113.6l-9.64,28.92a9.54,9.54,0,0,0-5.48-1.81l10-30c.69.44,1.4.87,2.11,1.28C96,112.55,97,113.09,98,113.6Z"/><path class="cls-3" d="M153.24,113v28.11a10,10,0,0,0-2.9-.42,9.9,9.9,0,0,0-2.89.42V115.64a53.88,53.88,0,0,0,5.45-2.53Z"/><rect class="cls-4" x="4.83" y="25.54" width="9.65" height="9.65"/><polygon class="cls-3" points="14.48 170.35 9.65 180 9.63 180 4.83 170.4 4.83 170.35 14.48 170.35"/><rect class="cls-5" x="4.82" y="35.2" width="9.66" height="135.15"/><path class="cls-1" d="M19.3,120.14a9.66,9.66,0,0,1-9.64,9.66,9.46,9.46,0,0,1-4.84-1.32,9.65,9.65,0,0,1,4.84-18,8.73,8.73,0,0,1,2.4.3,9.34,9.34,0,0,1,2.42,1,9.6,9.6,0,0,1,4.82,8.35Z"/><path class="cls-1" d="M222,90.34a9.66,9.66,0,1,1-12.56-9.22,10,10,0,0,1,2.9-.44,9.86,9.86,0,0,1,2.89.44A9.66,9.66,0,0,1,222,90.34Z"/><path class="cls-1" d="M160,150.34a9.66,9.66,0,1,1-12.55-9.22,9.9,9.9,0,0,1,2.89-.42,10,10,0,0,1,2.9.42A9.68,9.68,0,0,1,160,150.34Z"/><path class="cls-1" d="M92.38,150.34a9.65,9.65,0,1,1-9.64-9.64h.17a9.54,9.54,0,0,1,5.48,1.81A9.69,9.69,0,0,1,92.38,150.34Z"/></svg>