<svg id="Layer_1" data-name="Layer 1" xmlns="http://www.w3.org/2000/svg" viewBox="0 0 200 160"><defs><style>.cls-1{fill:#46853e;}.cls-2{fill:#f9f9fa;}.cls-3{fill:#e3b86b;}.cls-4{fill:#853e6d;}</style></defs><path class="cls-1" d="M145,60c0,.5,0,1,0,1.5,0,1.06-.08,2.12-.16,3.17s-.21,2.33-.37,3.47c0,.18,0,.35-.07.53-.26,1.78-.59,3.54-1,5.26a59,59,0,0,1-2.07,6.86q-.87,2.37-1.93,4.63A60,60,0,0,1,114,112.49l-.8.44a1.4,1.4,0,0,1-.34.18c-1.09.58-2.2,1.13-3.33,1.63-.7.32-1.4.62-2.12.9a56.66,56.66,0,0,1-5.45,1.91c-1.31.4-2.65.74-4,1l-1.5.31c-1,.19-2,.36-3,.5a59.47,59.47,0,0,1-8.5.6,60.47,60.47,0,0,1-10.13-.85q-2.78-.48-5.46-1.2h0c-1.68-.45-3.33-1-5-1.57-.94-.34-1.87-.7-2.79-1.09s-2.06-.91-3.07-1.41c-.19-.09-.38-.18-.56-.28-1-.51-2-1-3-1.63-.71-.41-1.42-.84-2.11-1.28A60.21,60.21,0,0,1,34.19,91.92q-1.45-2.31-2.69-4.75a59.28,59.28,0,0,1-5.77-17.8c-.05-.33-.1-.66-.14-1-.16-1.07-.28-2.14-.37-3.23s-.15-2-.18-3c0-.17,0-.34,0-.51,0-.56,0-1.11,0-1.67s0-1.13,0-1.69a60,60,0,0,1,120,.19C145,59,145,59.5,145,60Z"/><rect class="cls-2" x="50.5" y="26.75" width="33" height="60.5" rx="15.9"/><rect class="cls-2" x="86.5" y="15.25" width="33" height="71.5" rx="16.5"/><path class="cls-2" d="M120.86,84.38A18.06,18.06,0,0,1,103,100.24h-.66A18.08,18.08,0,0,1,85,87.37a18.08,18.08,0,0,1-17.29,12.87h-.66A18.06,18.06,0,0,1,49.14,84.38h1.51a16.57,16.57,0,0,0,16.4,14.35h.66A16.56,16.56,0,0,0,84.1,84.38h1.8c0,.29.09.58.14.87a16.57,16.57,0,0,0,16.25,13.48H103a16.57,16.57,0,0,0,16.4-14.35Z"/><rect class="cls-1" x="65" y="53" width="12" height="30" rx="6"/><rect class="cls-1" x="101" y="47" width="12" height="36" rx="6"/><path class="cls-1" d="M19.3,120.14a9.66,9.66,0,0,1-9.64,9.66,9.46,9.46,0,0,1-4.84-1.32,9.65,9.65,0,0,1,4.84-18,8.73,8.73,0,0,1,2.4.3,10.49,10.49,0,0,1,1.37.46,10.32,10.32,0,0,1,1.05.53A9.64,9.64,0,0,1,17,113.87a5.58,5.58,0,0,1,.37.48A9.56,9.56,0,0,1,19.3,120.14Z"/><path class="cls-1" d="M179.31,90.34a9.65,9.65,0,0,1-19.22,1.32,9.68,9.68,0,0,1,.65-5,9.66,9.66,0,0,1,6-5.51,10,10,0,0,1,2.9-.44,9.86,9.86,0,0,1,2.89.44A9.66,9.66,0,0,1,179.31,90.34Z"/><path class="cls-1" d="M139.32,149.64a9.66,9.66,0,1,1-16-7.31,9.48,9.48,0,0,1,3.41-1.91,8.15,8.15,0,0,1,1.11-.26,9.51,9.51,0,0,1,1.78-.16,10,10,0,0,1,2.9.42A9.68,9.68,0,0,1,139.32,149.64Z"/><path class="cls-1" d="M92.38,150.34a9.65,9.65,0,1,1-16.56-6.73A9.76,9.76,0,0,1,80.33,141a10.07,10.07,0,0,1,2.41-.3h.17a9.54,9.54,0,0,1,5.48,1.81A9.69,9.69,0,0,1,92.38,150.34Z"/><path class="cls-3" d="M160,90.34a9.54,9.54,0,0,0,.09,1.32l-20.72-6.24q1.06-2.27,1.93-4.63l19.44,5.84A9.56,9.56,0,0,0,160,90.34Z"/><path class="cls-3" d="M34.19,91.92,17.36,114.35a5.58,5.58,0,0,0-.37-.48,9.64,9.64,0,0,0-2.51-2.08,10.32,10.32,0,0,0-1.05-.53L31.5,87.17Q32.73,89.62,34.19,91.92Z"/><path class="cls-3" d="M80.33,141a9.76,9.76,0,0,0-4.51,2.61L69.41,118q2.69.72,5.46,1.2Z"/><path class="cls-3" d="M127.88,140.16a8.15,8.15,0,0,0-1.11.26,9.48,9.48,0,0,0-3.41,1.91l-13.79-27.59c1.13-.5,2.24-1,3.33-1.63a1.4,1.4,0,0,0,.34-.18l.8-.44Z"/><path class="cls-4" d="M200,105a3,3,0,0,1-.84,2c-1.53,1.76-5.06,3-9.16,3s-7.63-1.24-9.16-3a3,3,0,0,1-.84-2c0-2.76,4.48-5,10-5S200,102.24,200,105Z"/><path class="cls-4" d="M200,105v4c0,2.76-4.48,5-10,5s-10-2.24-10-5v-4a3,3,0,0,0,.84,2c1.53,1.76,5.06,3,9.16,3s7.63-1.24,9.16-3A3,3,0,0,0,200,105Z"/></svg>