<svg id="Layer_1" data-name="Layer 1" xmlns="http://www.w3.org/2000/svg" viewBox="0 0 170 244.3"><defs><style>.cls-1{fill:#46853e;}.cls-2,.cls-4{fill:#f9f9fa;}.cls-3{fill:none;}.cls-4{fill-rule:evenodd;}.cls-5{fill:#e3b86b;}</style></defs><path class="cls-1" d="M145,160c0,.5,0,1,0,1.5,0,1.06-.08,2.12-.16,3.17s-.21,2.33-.37,3.47c0,.18,0,.35-.07.53-.26,1.78-.59,3.54-1,5.26a59,59,0,0,1-2.07,6.86q-.87,2.37-1.93,4.63A60,60,0,0,1,114,212.49l-.8.44a1.4,1.4,0,0,1-.34.18c-1.09.58-2.2,1.13-3.33,1.63-.7.32-1.4.62-2.12.9s-1.73.68-2.61,1-1.88.64-2.84.92c-.64.19-1.28.38-1.93.55s-1.38.34-2.07.49l-1.5.31c-1,.19-2,.36-3,.5a59.47,59.47,0,0,1-8.5.6,60.47,60.47,0,0,1-10.13-.85q-2.5-.43-4.93-1.06l-.53-.14h0c-1.44-.38-2.85-.83-4.24-1.32l-.71-.25c-.94-.34-1.87-.7-2.79-1.09s-2.06-.91-3.07-1.41L58,213.6c-1-.51-2-1-3-1.63-.71-.41-1.42-.84-2.11-1.28a60.21,60.21,0,0,1-18.72-18.77q-1.45-2.31-2.69-4.75a59.28,59.28,0,0,1-5.77-17.8c-.05-.33-.1-.66-.14-1-.16-1.07-.28-2.14-.37-3.23s-.15-2-.18-3c0-.17,0-.34,0-.51,0-.56,0-1.11,0-1.67s0-1.13,0-1.69a59.79,59.79,0,0,1,9.29-30.45q1.36-2.14,2.91-4.17a60,60,0,0,1,90.92-5.38l1.07,1.14c.78.85,1.53,1.72,2.26,2.61s1.33,1.67,2,2.53A59.67,59.67,0,0,1,145,158.5C145,159,145,159.5,145,160Z" transform="translate(10 -5)"/><rect class="cls-2" x="60.5" y="121.75" width="33" height="60.5" rx="15.9"/><rect class="cls-2" x="96.5" y="110.25" width="33" height="71.5" rx="16.5"/><path class="cls-2" d="M120.86,184.38A18.06,18.06,0,0,1,103,200.24h-.66A18.08,18.08,0,0,1,85,187.37a18.08,18.08,0,0,1-17.29,12.87h-.66a18.06,18.06,0,0,1-17.91-15.86h1.51a16.57,16.57,0,0,0,16.4,14.35h.66A16.56,16.56,0,0,0,84.1,184.38h1.8c0,.29.09.58.14.87a16.57,16.57,0,0,0,16.25,13.48H103a16.57,16.57,0,0,0,16.4-14.35Z" transform="translate(10 -5)"/><rect class="cls-1" x="70" y="133" width="12" height="30" rx="6"/><path class="cls-3" d="M-8.71,110H-10" transform="translate(10 -5)"/><path class="cls-3" d="M-8.71,110H-10" transform="translate(10 -5)"/><rect class="cls-1" x="106" y="127" width="12" height="36" rx="6"/><path class="cls-1" d="M19.3,99.64A9.63,9.63,0,0,1,18,104.47a8.82,8.82,0,0,1-.72,1.08A9.86,9.86,0,0,1,14.48,108a0,0,0,0,0,0,0,8.87,8.87,0,0,1-1.16.56A9.52,9.52,0,0,1,4.82,108,9.6,9.6,0,0,1,0,100c0-.12,0-.24,0-.36A9.68,9.68,0,0,1,9.66,90a8.73,8.73,0,0,1,2.4.3,10.49,10.49,0,0,1,1.37.46,10.32,10.32,0,0,1,1.05.53A9.64,9.64,0,0,1,17,93.37a5.58,5.58,0,0,1,.37.48A9.67,9.67,0,0,1,18.94,97a9.25,9.25,0,0,1,.34,2C19.29,99.26,19.3,99.45,19.3,99.64Z" transform="translate(10 -5)"/><path class="cls-1" d="M160,99.66a9.66,9.66,0,0,1-8.42,9.58,10.19,10.19,0,0,1-1.24.08,9.66,9.66,0,0,1-3.73-.75,11.2,11.2,0,0,1-1.1-.54,9.69,9.69,0,0,1-3.53-3.55,9.56,9.56,0,0,1-1-2.63,7.88,7.88,0,0,1-.16-.87,9.68,9.68,0,0,1,.65-5,9.66,9.66,0,0,1,6-5.51,10,10,0,0,1,2.9-.44,9.86,9.86,0,0,1,2.89.44A9.7,9.7,0,0,1,160,99.66Z" transform="translate(10 -5)"/><path class="cls-1" d="M119.32,239.64a9.66,9.66,0,1,1-16-7.31,9,9,0,0,1,1.16-.87,9.59,9.59,0,0,1,2.25-1,8.15,8.15,0,0,1,1.11-.26,8.23,8.23,0,0,1,1.42-.15h.36a10,10,0,0,1,2.9.42A9.68,9.68,0,0,1,119.32,239.64Z" transform="translate(10 -5)"/><path class="cls-1" d="M70,239.64a9.65,9.65,0,1,1-16.56-6.73A9.76,9.76,0,0,1,58,230.3a10.07,10.07,0,0,1,2.41-.3h.33a9.48,9.48,0,0,1,4.79,1.44l.53.36A9.69,9.69,0,0,1,70,239.64Z" transform="translate(10 -5)"/><path id="path1091" class="cls-4" d="M22.64,52.05,51.2,80.88,79.7,52.05H61.94a15.17,15.17,0,0,1-.4-2A23.43,23.43,0,1,1,85.27,73.33V95A45,45,0,1,0,39.94,50c0,.7.16,1.37.2,2Z" transform="translate(10 -5)"/><path class="cls-5" d="M37.23,123.69q-1.54,2-2.91,4.17L14.47,108a0,0,0,0,1,0,0,9.86,9.86,0,0,0,2.81-2.45,8.82,8.82,0,0,0,.72-1.08Z" transform="translate(10 -5)"/><path class="cls-5" d="M145.51,108l-14,14c-.73-.89-1.48-1.76-2.26-2.61l-1.07-1.14L142,104.48A9.69,9.69,0,0,0,145.51,108Z" transform="translate(10 -5)"/><path class="cls-5" d="M69.94,218.09l-4.46,13.37A9.48,9.48,0,0,0,60.69,230l4.47-13.39c1.39.49,2.8.94,4.24,1.32h0Z" transform="translate(10 -5)"/><path class="cls-5" d="M109.3,230a8.23,8.23,0,0,0-1.42.15,8.15,8.15,0,0,0-1.11.26,9.59,9.59,0,0,0-2.25,1l-4.45-13.36c.65-.17,1.29-.36,1.93-.55,1-.28,1.9-.59,2.84-.92Z" transform="translate(10 -5)"/></svg>